<svg xmlns="http://www.w3.org/2000/svg" viewBox="0 0 100 100" width="100" height="100">
  <defs>
    <linearGradient id="grad1" x1="0%" y1="0%" x2="100%" y2="0%">
      <stop offset="0%" style="stop-color:#00B2FF;stop-opacity:1" />
      <stop offset="100%" style="stop-color:#9D4EDD;stop-opacity:1" />
    </linearGradient>
  </defs>
  <!-- Left H pillar -->
  <rect x="4" y="8" width="14" height="55" rx="7" fill="url(#grad1)"/>
  <!-- Left H crossbar bottom -->
  <rect x="4" y="42" width="28" height="13" rx="6" fill="url(#grad1)"/>
  <!-- Right H pillar -->
  <rect x="82" y="8" width="14" height="55" rx="7" fill="url(#grad1)"/>
  <!-- Right H crossbar bottom -->
  <rect x="68" y="42" width="28" height="13" rx="6" fill="url(#grad1)"/>
  <!-- Roof left slope -->
  <polygon points="4,55 50,22 50,35 18,60" fill="url(#grad1)"/>
  <!-- Roof right slope -->
  <polygon points="96,55 50,22 50,35 82,60" fill="url(#grad1)"/>
  <!-- Window grid -->
  <rect x="39" y="60" width="10" height="10" rx="2" fill="url(#grad1)"/>
  <rect x="51" y="60" width="10" height="10" rx="2" fill="url(#grad1)"/>
  <rect x="39" y="72" width="10" height="10" rx="2" fill="url(#grad1)"/>
  <rect x="51" y="72" width="10" height="10" rx="2" fill="url(#grad1)"/>
</svg>